solid OpenSCAD_Model
  facet normal -0.707107 0 0.707107
    outer loop
      vertex -19.8679 17.5 0
      vertex -14.9679 -17.5 4.9
      vertex -14.9679 17.5 4.9
    endloop
  endfacet
  facet normal -0.707107 0 0.707107
    outer loop
      vertex -14.9679 -17.5 4.9
      vertex -19.8679 17.5 0
      vertex -19.8679 -17.5 0
    endloop
  endfacet
  facet normal 0.707107 0 0.707107
    outer loop
      vertex 15.11 17.5 4.9
      vertex 20 -17.5 0.01
      vertex 20 17.5 0.01
    endloop
  endfacet
  facet normal 0.707107 0 0.707107
    outer loop
      vertex 20 -17.5 0.01
      vertex 15.11 17.5 4.9
      vertex 15.11 -17.5 4.9
    endloop
  endfacet
  facet normal 1 -0 0
    outer loop
      vertex 20 -17.5 0.01
      vertex 20 17.5 0
      vertex 20 17.5 0.01
    endloop
  endfacet
  facet normal 1 0 0
    outer loop
      vertex 20 17.5 0
      vertex 20 -17.5 0.01
      vertex 20 -17.5 0
    endloop
  endfacet
  facet normal 0 0 -1
    outer loop
      vertex -19.8679 -17.5 0
      vertex 20 17.5 0
      vertex 20 -17.5 0
    endloop
  endfacet
  facet normal -0 0 -1
    outer loop
      vertex 20 17.5 0
      vertex -19.8679 -17.5 0
      vertex -19.8679 17.5 0
    endloop
  endfacet
  facet normal 0 1 0
    outer loop
      vertex 32.5 17.5 51.9
      vertex 25.5 17.5 28.4
      vertex 25.5 17.5 51.9
    endloop
  endfacet
  facet normal 0 1 0
    outer loop
      vertex 32.5 17.5 4.9
      vertex 23.5 17.5 28.4
      vertex 25.5 17.5 28.4
    endloop
  endfacet
  facet normal 0 1 0
    outer loop
      vertex 23.5 17.5 28.4
      vertex 15.11 17.5 4.9
      vertex -23.5 17.5 28.4
    endloop
  endfacet
  facet normal 0 1 0
    outer loop
      vertex 23.5 17.5 28.4
      vertex 32.5 17.5 4.9
      vertex 15.11 17.5 4.9
    endloop
  endfacet
  facet normal 0 1 -0
    outer loop
      vertex 32.5 17.5 4.9
      vertex 25.5 17.5 28.4
      vertex 32.5 17.5 51.9
    endloop
  endfacet
  facet normal 0 1 -0
    outer loop
      vertex 23.5 17.5 28.4
      vertex -23.5 17.5 51.9
      vertex 23.5 17.5 51.9
    endloop
  endfacet
  facet normal 0 1 0
    outer loop
      vertex -23.5 17.5 51.9
      vertex 23.5 17.5 28.4
      vertex -23.5 17.5 28.4
    endloop
  endfacet
  facet normal 0 1 -0
    outer loop
      vertex -25.5 17.5 28.4
      vertex -32.5 17.5 51.9
      vertex -25.5 17.5 51.9
    endloop
  endfacet
  facet normal 0 1 -0
    outer loop
      vertex -14.9679 17.5 4.9
      vertex -23.5 17.5 28.4
      vertex 15.11 17.5 4.9
    endloop
  endfacet
  facet normal 0 1 0
    outer loop
      vertex -32.5 17.5 4.9
      vertex -23.5 17.5 28.4
      vertex -14.9679 17.5 4.9
    endloop
  endfacet
  facet normal 0 1 0
    outer loop
      vertex -25.5 17.5 28.4
      vertex -32.5 17.5 4.9
      vertex -32.5 17.5 51.9
    endloop
  endfacet
  facet normal 0 1 0
    outer loop
      vertex -23.5 17.5 28.4
      vertex -32.5 17.5 4.9
      vertex -25.5 17.5 28.4
    endloop
  endfacet
  facet normal 0 1 -0
    outer loop
      vertex 20 17.5 0
      vertex 15.11 17.5 4.9
      vertex 20 17.5 0.01
    endloop
  endfacet
  facet normal 0 1 0
    outer loop
      vertex 15.11 17.5 4.9
      vertex 20 17.5 0
      vertex -14.9679 17.5 4.9
    endloop
  endfacet
  facet normal 0 1 0
    outer loop
      vertex -14.9679 17.5 4.9
      vertex 20 17.5 0
      vertex -19.8679 17.5 0
    endloop
  endfacet
  facet normal 0 -1 0
    outer loop
      vertex -32.5 -17.5 51.9
      vertex -25.5 -17.5 11.9
      vertex -25.5 -17.5 51.9
    endloop
  endfacet
  facet normal 0 -1 0
    outer loop
      vertex -14.9679 -17.5 4.9
      vertex -25.5 -17.5 11.9
      vertex -32.5 -17.5 4.9
    endloop
  endfacet
  facet normal 0 -1 0
    outer loop
      vertex -32.5 -17.5 4.9
      vertex -25.5 -17.5 11.9
      vertex -32.5 -17.5 51.9
    endloop
  endfacet
  facet normal 0 -1 0
    outer loop
      vertex 25.5 -17.5 11.9
      vertex 32.5 -17.5 51.9
      vertex 25.5 -17.5 51.9
    endloop
  endfacet
  facet normal 0 -1 0
    outer loop
      vertex -25.5 -17.5 11.9
      vertex -14.9679 -17.5 4.9
      vertex 25.5 -17.5 11.9
    endloop
  endfacet
  facet normal 0 -1 0
    outer loop
      vertex 15.11 -17.5 4.9
      vertex 25.5 -17.5 11.9
      vertex -14.9679 -17.5 4.9
    endloop
  endfacet
  facet normal 0 -1 0
    outer loop
      vertex 25.5 -17.5 11.9
      vertex 32.5 -17.5 4.9
      vertex 32.5 -17.5 51.9
    endloop
  endfacet
  facet normal 0 -1 0
    outer loop
      vertex 32.5 -17.5 4.9
      vertex 25.5 -17.5 11.9
      vertex 15.11 -17.5 4.9
    endloop
  endfacet
  facet normal 0 -1 0
    outer loop
      vertex 20 -17.5 0
      vertex 15.11 -17.5 4.9
      vertex -14.9679 -17.5 4.9
    endloop
  endfacet
  facet normal 0 -1 0
    outer loop
      vertex 20 -17.5 0
      vertex -14.9679 -17.5 4.9
      vertex -19.8679 -17.5 0
    endloop
  endfacet
  facet normal 0 -1 0
    outer loop
      vertex 15.11 -17.5 4.9
      vertex 20 -17.5 0
      vertex 20 -17.5 0.01
    endloop
  endfacet
  facet normal -1 0 0
    outer loop
      vertex 25.5 15.5 28.4
      vertex 25.5 17.5 51.9
      vertex 25.5 17.5 28.4
    endloop
  endfacet
  facet normal -1 -0 0
    outer loop
      vertex 25.5 17.5 51.9
      vertex 25.5 15.5 28.4
      vertex 25.5 15.5 51.9
    endloop
  endfacet
  facet normal -0 0 1
    outer loop
      vertex 23.5 17.5 28.4
      vertex 25.5 15.5 28.4
      vertex 25.5 17.5 28.4
    endloop
  endfacet
  facet normal 0 0 1
    outer loop
      vertex 25.5 15.5 28.4
      vertex 23.5 17.5 28.4
      vertex 23.5 15.5 28.4
    endloop
  endfacet
  facet normal 1 0 0
    outer loop
      vertex 23.5 17.5 51.9
      vertex 23.5 15.5 49.9
      vertex 23.5 17.5 28.4
    endloop
  endfacet
  facet normal 1 -0 0
    outer loop
      vertex 23.5 13 51.9
      vertex 23.5 15.5 49.9
      vertex 23.5 17.5 51.9
    endloop
  endfacet
  facet normal 1 0 0
    outer loop
      vertex 23.5 15.5 49.9
      vertex 23.5 13 51.9
      vertex 23.5 13 49.9
    endloop
  endfacet
  facet normal 1 0 0
    outer loop
      vertex 23.5 17.5 28.4
      vertex 23.5 15.5 49.9
      vertex 23.5 15.5 28.4
    endloop
  endfacet
  facet normal -1 0 0
    outer loop
      vertex -23.5 15.5 49.9
      vertex -23.5 17.5 28.4
      vertex -23.5 15.5 28.4
    endloop
  endfacet
  facet normal -1 0 0
    outer loop
      vertex -23.5 17.5 28.4
      vertex -23.5 15.5 49.9
      vertex -23.5 17.5 51.9
    endloop
  endfacet
  facet normal -1 0 0
    outer loop
      vertex -23.5 13 51.9
      vertex -23.5 15.5 49.9
      vertex -23.5 13 49.9
    endloop
  endfacet
  facet normal -1 0 0
    outer loop
      vertex -23.5 15.5 49.9
      vertex -23.5 13 51.9
      vertex -23.5 17.5 51.9
    endloop
  endfacet
  facet normal -0 0 1
    outer loop
      vertex -25.5 17.5 28.4
      vertex -23.5 15.5 28.4
      vertex -23.5 17.5 28.4
    endloop
  endfacet
  facet normal 0 0 1
    outer loop
      vertex -23.5 15.5 28.4
      vertex -25.5 17.5 28.4
      vertex -25.5 15.5 28.4
    endloop
  endfacet
  facet normal 1 -0 0
    outer loop
      vertex -25.5 15.5 51.9
      vertex -25.5 17.5 28.4
      vertex -25.5 17.5 51.9
    endloop
  endfacet
  facet normal 1 0 0
    outer loop
      vertex -25.5 17.5 28.4
      vertex -25.5 15.5 51.9
      vertex -25.5 15.5 28.4
    endloop
  endfacet
  facet normal -0 0 1
    outer loop
      vertex -30.5 15.5 6.9
      vertex 30.5 -15.5 6.9
      vertex 30.5 15.5 6.9
    endloop
  endfacet
  facet normal 0 0 1
    outer loop
      vertex 30.5 -15.5 6.9
      vertex -30.5 15.5 6.9
      vertex -30.5 -15.5 6.9
    endloop
  endfacet
  facet normal 1 0 0
    outer loop
      vertex -30.5 15.5 51.9
      vertex -30.5 10.5 44.9
      vertex -30.5 15.5 6.9
    endloop
  endfacet
  facet normal 1 0 0
    outer loop
      vertex -30.5 15.5 51.9
      vertex -30.5 -10.5 44.9
      vertex -30.5 10.5 44.9
    endloop
  endfacet
  facet normal 1 0 0
    outer loop
      vertex -30.5 -15.5 6.9
      vertex -30.5 -10.5 44.9
      vertex -30.5 -15.5 51.9
    endloop
  endfacet
  facet normal 1 -0 0
    outer loop
      vertex -30.5 -15.5 51.9
      vertex -30.5 -10.5 44.9
      vertex -30.5 15.5 51.9
    endloop
  endfacet
  facet normal 1 -0 0
    outer loop
      vertex -30.5 10.5 11.9
      vertex -30.5 15.5 6.9
      vertex -30.5 10.5 44.9
    endloop
  endfacet
  facet normal 1 -0 0
    outer loop
      vertex -30.5 -10.5 11.9
      vertex -30.5 15.5 6.9
      vertex -30.5 10.5 11.9
    endloop
  endfacet
  facet normal 1 0 0
    outer loop
      vertex -30.5 -10.5 11.9
      vertex -30.5 -15.5 6.9
      vertex -30.5 15.5 6.9
    endloop
  endfacet
  facet normal 1 0 0
    outer loop
      vertex -30.5 -10.5 44.9
      vertex -30.5 -15.5 6.9
      vertex -30.5 -10.5 11.9
    endloop
  endfacet
  facet normal 0 -1 0
    outer loop
      vertex -30.5 15.5 51.9
      vertex -25.5 15.5 28.4
      vertex -25.5 15.5 51.9
    endloop
  endfacet
  facet normal 0 -1 0
    outer loop
      vertex -30.5 15.5 6.9
      vertex -23.5 15.5 28.4
      vertex -25.5 15.5 28.4
    endloop
  endfacet
  facet normal 0 -1 -0
    outer loop
      vertex -23.5 15.5 28.4
      vertex -30.5 15.5 6.9
      vertex 23.5 15.5 28.4
    endloop
  endfacet
  facet normal 0 -1 0
    outer loop
      vertex 30.5 15.5 6.9
      vertex 23.5 15.5 28.4
      vertex -30.5 15.5 6.9
    endloop
  endfacet
  facet normal 0 -1 0
    outer loop
      vertex -30.5 15.5 6.9
      vertex -25.5 15.5 28.4
      vertex -30.5 15.5 51.9
    endloop
  endfacet
  facet normal 0 -1 0
    outer loop
      vertex -23.5 15.5 28.4
      vertex 23.5 15.5 49.9
      vertex -23.5 15.5 49.9
    endloop
  endfacet
  facet normal 0 -1 -0
    outer loop
      vertex 23.5 15.5 49.9
      vertex -23.5 15.5 28.4
      vertex 23.5 15.5 28.4
    endloop
  endfacet
  facet normal 0 -1 0
    outer loop
      vertex 25.5 15.5 28.4
      vertex 30.5 15.5 51.9
      vertex 25.5 15.5 51.9
    endloop
  endfacet
  facet normal 0 -1 0
    outer loop
      vertex 25.5 15.5 28.4
      vertex 30.5 15.5 6.9
      vertex 30.5 15.5 51.9
    endloop
  endfacet
  facet normal 0 -1 0
    outer loop
      vertex 23.5 15.5 28.4
      vertex 30.5 15.5 6.9
      vertex 25.5 15.5 28.4
    endloop
  endfacet
  facet normal 0 1 0
    outer loop
      vertex 30.5 -15.5 51.9
      vertex 25.5 -15.5 11.9
      vertex 25.5 -15.5 51.9
    endloop
  endfacet
  facet normal 0 1 0
    outer loop
      vertex 25.5 -15.5 11.9
      vertex 30.5 -15.5 6.9
      vertex -25.5 -15.5 11.9
    endloop
  endfacet
  facet normal 0 1 -0
    outer loop
      vertex 30.5 -15.5 6.9
      vertex 25.5 -15.5 11.9
      vertex 30.5 -15.5 51.9
    endloop
  endfacet
  facet normal 0 1 -0
    outer loop
      vertex -25.5 -15.5 11.9
      vertex -30.5 -15.5 51.9
      vertex -25.5 -15.5 51.9
    endloop
  endfacet
  facet normal 0 1 0
    outer loop
      vertex -25.5 -15.5 11.9
      vertex -30.5 -15.5 6.9
      vertex -30.5 -15.5 51.9
    endloop
  endfacet
  facet normal 0 1 0
    outer loop
      vertex -30.5 -15.5 6.9
      vertex -25.5 -15.5 11.9
      vertex 30.5 -15.5 6.9
    endloop
  endfacet
  facet normal -1 0 0
    outer loop
      vertex 30.5 10.5 44.9
      vertex 30.5 15.5 6.9
      vertex 30.5 10.5 11.9
    endloop
  endfacet
  facet normal -1 0 0
    outer loop
      vertex 30.5 -1.78428 10.5543
      vertex 30.5 10.5 11.9
      vertex 30.5 15.5 6.9
    endloop
  endfacet
  facet normal -1 -0 0
    outer loop
      vertex 30.5 10.5 11.9
      vertex 30.5 -1.16987 11.4
      vertex 30.5 -0.947259 11.9
    endloop
  endfacet
  facet normal -1 0 0
    outer loop
      vertex 30.5 10.5 11.9
      vertex 30.5 -1.78428 10.5543
      vertex 30.5 -1.16987 11.4
    endloop
  endfacet
  facet normal -1 0 0
    outer loop
      vertex 30.5 15.5 6.9
      vertex 30.5 -2.56107 9.85491
      vertex 30.5 -1.78428 10.5543
    endloop
  endfacet
  facet normal -1 0 0
    outer loop
      vertex 30.5 15.5 6.9
      vertex 30.5 -3.46632 9.33227
      vertex 30.5 -2.56107 9.85491
    endloop
  endfacet
  facet normal -1 0 0
    outer loop
      vertex 30.5 15.5 6.9
      vertex 30.5 -4.46044 9.00926
      vertex 30.5 -3.46632 9.33227
    endloop
  endfacet
  facet normal -1 0 0
    outer loop
      vertex 30.5 15.5 6.9
      vertex 30.5 -5.5 8.9
      vertex 30.5 -4.46044 9.00926
    endloop
  endfacet
  facet normal -1 0 0
    outer loop
      vertex 30.5 -9.83013 11.4
      vertex 30.5 -10.5 11.9
      vertex 30.5 -10.0527 11.9
    endloop
  endfacet
  facet normal -1 0 0
    outer loop
      vertex 30.5 -9.21572 10.5543
      vertex 30.5 -10.5 11.9
      vertex 30.5 -9.83013 11.4
    endloop
  endfacet
  facet normal -1 -0 0
    outer loop
      vertex 30.5 -10.5 11.9
      vertex 30.5 -15.5 6.9
      vertex 30.5 -10.5 44.9
    endloop
  endfacet
  facet normal -1 -0 0
    outer loop
      vertex 30.5 -9.21572 10.5543
      vertex 30.5 -15.5 6.9
      vertex 30.5 -10.5 11.9
    endloop
  endfacet
  facet normal -1 -0 0
    outer loop
      vertex 30.5 -8.43893 9.85491
      vertex 30.5 -15.5 6.9
      vertex 30.5 -9.21572 10.5543
    endloop
  endfacet
  facet normal -1 -0 0
    outer loop
      vertex 30.5 -7.53368 9.33227
      vertex 30.5 -15.5 6.9
      vertex 30.5 -8.43893 9.85491
    endloop
  endfacet
  facet normal -1 -0 0
    outer loop
      vertex 30.5 -6.53956 9.00926
      vertex 30.5 -15.5 6.9
      vertex 30.5 -7.53368 9.33227
    endloop
  endfacet
  facet normal -1 -0 0
    outer loop
      vertex 30.5 -5.5 8.9
      vertex 30.5 -15.5 6.9
      vertex 30.5 -6.53956 9.00926
    endloop
  endfacet
  facet normal -1 0 0
    outer loop
      vertex 30.5 -15.5 6.9
      vertex 30.5 -5.5 8.9
      vertex 30.5 15.5 6.9
    endloop
  endfacet
  facet normal -1 0 0
    outer loop
      vertex 30.5 15.5 6.9
      vertex 30.5 10.5 44.9
      vertex 30.5 15.5 51.9
    endloop
  endfacet
  facet normal -1 0 0
    outer loop
      vertex 30.5 -10.5 44.9
      vertex 30.5 15.5 51.9
      vertex 30.5 10.5 44.9
    endloop
  endfacet
  facet normal -1 0 0
    outer loop
      vertex 30.5 -10.5 44.9
      vertex 30.5 -15.5 51.9
      vertex 30.5 15.5 51.9
    endloop
  endfacet
  facet normal -1 0 0
    outer loop
      vertex 30.5 -15.5 51.9
      vertex 30.5 -10.5 44.9
      vertex 30.5 -15.5 6.9
    endloop
  endfacet
  facet normal 1 0 0
    outer loop
      vertex 32.5 17.5 51.9
      vertex 32.5 10.5 44.9
      vertex 32.5 17.5 4.9
    endloop
  endfacet
  facet normal 1 0 0
    outer loop
      vertex 32.5 17.5 51.9
      vertex 32.5 -10.5 44.9
      vertex 32.5 10.5 44.9
    endloop
  endfacet
  facet normal 1 0 0
    outer loop
      vertex 32.5 -10.5 44.9
      vertex 32.5 -17.5 51.9
      vertex 32.5 -10.5 11.9
    endloop
  endfacet
  facet normal 1 -0 0
    outer loop
      vertex 32.5 -17.5 51.9
      vertex 32.5 -10.5 44.9
      vertex 32.5 17.5 51.9
    endloop
  endfacet
  facet normal 1 -0 0
    outer loop
      vertex 32.5 10.5 11.9
      vertex 32.5 17.5 4.9
      vertex 32.5 10.5 44.9
    endloop
  endfacet
  facet normal 1 0 0
    outer loop
      vertex 32.5 -1.16987 11.4
      vertex 32.5 10.5 11.9
      vertex 32.5 -0.947259 11.9
    endloop
  endfacet
  facet normal 1 0 0
    outer loop
      vertex 32.5 -1.78428 10.5543
      vertex 32.5 10.5 11.9
      vertex 32.5 -1.16987 11.4
    endloop
  endfacet
  facet normal 1 0 0
    outer loop
      vertex 32.5 -2.56107 9.85491
      vertex 32.5 10.5 11.9
      vertex 32.5 -1.78428 10.5543
    endloop
  endfacet
  facet normal 1 0 0
    outer loop
      vertex 32.5 10.5 11.9
      vertex 32.5 -2.56107 9.85491
      vertex 32.5 17.5 4.9
    endloop
  endfacet
  facet normal 1 -0 0
    outer loop
      vertex 32.5 -3.46632 9.33227
      vertex 32.5 17.5 4.9
      vertex 32.5 -2.56107 9.85491
    endloop
  endfacet
  facet normal 1 -0 0
    outer loop
      vertex 32.5 -4.46044 9.00926
      vertex 32.5 17.5 4.9
      vertex 32.5 -3.46632 9.33227
    endloop
  endfacet
  facet normal 1 0 0
    outer loop
      vertex 32.5 -17.5 4.9
      vertex 32.5 -4.46044 9.00926
      vertex 32.5 -5.5 8.9
    endloop
  endfacet
  facet normal 1 0 0
    outer loop
      vertex 32.5 -17.5 4.9
      vertex 32.5 -5.5 8.9
      vertex 32.5 -6.53956 9.00926
    endloop
  endfacet
  facet normal 1 -0 0
    outer loop
      vertex 32.5 -10.5 11.9
      vertex 32.5 -9.83013 11.4
      vertex 32.5 -10.0527 11.9
    endloop
  endfacet
  facet normal 1 0 0
    outer loop
      vertex 32.5 -10.5 11.9
      vertex 32.5 -9.21572 10.5543
      vertex 32.5 -9.83013 11.4
    endloop
  endfacet
  facet normal 1 0 0
    outer loop
      vertex 32.5 -4.46044 9.00926
      vertex 32.5 -17.5 4.9
      vertex 32.5 17.5 4.9
    endloop
  endfacet
  facet normal 1 0 0
    outer loop
      vertex 32.5 -7.53368 9.33227
      vertex 32.5 -17.5 4.9
      vertex 32.5 -6.53956 9.00926
    endloop
  endfacet
  facet normal 1 0 0
    outer loop
      vertex 32.5 -8.43893 9.85491
      vertex 32.5 -17.5 4.9
      vertex 32.5 -7.53368 9.33227
    endloop
  endfacet
  facet normal 1 0 0
    outer loop
      vertex 32.5 -9.21572 10.5543
      vertex 32.5 -17.5 4.9
      vertex 32.5 -8.43893 9.85491
    endloop
  endfacet
  facet normal 1 0 0
    outer loop
      vertex 32.5 -10.5 11.9
      vertex 32.5 -17.5 4.9
      vertex 32.5 -9.21572 10.5543
    endloop
  endfacet
  facet normal 1 0 0
    outer loop
      vertex 32.5 -17.5 4.9
      vertex 32.5 -10.5 11.9
      vertex 32.5 -17.5 51.9
    endloop
  endfacet
  facet normal 0 0 1
    outer loop
      vertex -25.5 17.5 51.9
      vertex -30.5 15.5 51.9
      vertex -25.5 15.5 51.9
    endloop
  endfacet
  facet normal 0 0 1
    outer loop
      vertex -30.5 15.5 51.9
      vertex -32.5 17.5 51.9
      vertex -30.5 -15.5 51.9
    endloop
  endfacet
  facet normal -0 0 1
    outer loop
      vertex -32.5 17.5 51.9
      vertex -30.5 15.5 51.9
      vertex -25.5 17.5 51.9
    endloop
  endfacet
  facet normal -0 0 1
    outer loop
      vertex -30.5 -15.5 51.9
      vertex -25.5 -17.5 51.9
      vertex -25.5 -15.5 51.9
    endloop
  endfacet
  facet normal 0 0 1
    outer loop
      vertex -30.5 -15.5 51.9
      vertex -32.5 -17.5 51.9
      vertex -25.5 -17.5 51.9
    endloop
  endfacet
  facet normal 0 0 1
    outer loop
      vertex -32.5 -17.5 51.9
      vertex -30.5 -15.5 51.9
      vertex -32.5 17.5 51.9
    endloop
  endfacet
  facet normal 0 0 1
    outer loop
      vertex 32.5 17.5 51.9
      vertex 30.5 15.5 51.9
      vertex 32.5 -17.5 51.9
    endloop
  endfacet
  facet normal -0 0 1
    outer loop
      vertex 25.5 17.5 51.9
      vertex 30.5 15.5 51.9
      vertex 32.5 17.5 51.9
    endloop
  endfacet
  facet normal 0 0 1
    outer loop
      vertex 30.5 15.5 51.9
      vertex 25.5 17.5 51.9
      vertex 25.5 15.5 51.9
    endloop
  endfacet
  facet normal -0 0 1
    outer loop
      vertex 30.5 -15.5 51.9
      vertex 32.5 -17.5 51.9
      vertex 30.5 15.5 51.9
    endloop
  endfacet
  facet normal 0 0 1
    outer loop
      vertex 25.5 -17.5 51.9
      vertex 30.5 -15.5 51.9
      vertex 25.5 -15.5 51.9
    endloop
  endfacet
  facet normal 0 0 1
    outer loop
      vertex 30.5 -15.5 51.9
      vertex 25.5 -17.5 51.9
      vertex 32.5 -17.5 51.9
    endloop
  endfacet
  facet normal -0 0 1
    outer loop
      vertex -23.5 17.5 51.9
      vertex 23.5 13 51.9
      vertex 23.5 17.5 51.9
    endloop
  endfacet
  facet normal 0 0 1
    outer loop
      vertex 23.5 13 51.9
      vertex -23.5 17.5 51.9
      vertex -23.5 13 51.9
    endloop
  endfacet
  facet normal 0 0 -1
    outer loop
      vertex 15.11 -17.5 4.9
      vertex 32.5 17.5 4.9
      vertex 32.5 -17.5 4.9
    endloop
  endfacet
  facet normal -0 0 -1
    outer loop
      vertex 32.5 17.5 4.9
      vertex 15.11 -17.5 4.9
      vertex 15.11 17.5 4.9
    endloop
  endfacet
  facet normal 0 0 -1
    outer loop
      vertex -32.5 -17.5 4.9
      vertex -14.9679 17.5 4.9
      vertex -14.9679 -17.5 4.9
    endloop
  endfacet
  facet normal -0 0 -1
    outer loop
      vertex -14.9679 17.5 4.9
      vertex -32.5 -17.5 4.9
      vertex -32.5 17.5 4.9
    endloop
  endfacet
  facet normal -1 0 0
    outer loop
      vertex -32.5 17.5 4.9
      vertex -32.5 10.5 11.9
      vertex -32.5 17.5 51.9
    endloop
  endfacet
  facet normal -1 0 0
    outer loop
      vertex -32.5 17.5 4.9
      vertex -32.5 -10.5 11.9
      vertex -32.5 10.5 11.9
    endloop
  endfacet
  facet normal -1 -0 0
    outer loop
      vertex -32.5 -10.5 11.9
      vertex -32.5 -17.5 4.9
      vertex -32.5 -10.5 44.9
    endloop
  endfacet
  facet normal -1 0 0
    outer loop
      vertex -32.5 -17.5 4.9
      vertex -32.5 -10.5 11.9
      vertex -32.5 17.5 4.9
    endloop
  endfacet
  facet normal -1 0 0
    outer loop
      vertex -32.5 10.5 44.9
      vertex -32.5 17.5 51.9
      vertex -32.5 10.5 11.9
    endloop
  endfacet
  facet normal -1 0 0
    outer loop
      vertex -32.5 -10.5 44.9
      vertex -32.5 17.5 51.9
      vertex -32.5 10.5 44.9
    endloop
  endfacet
  facet normal -1 0 0
    outer loop
      vertex -32.5 -10.5 44.9
      vertex -32.5 -17.5 51.9
      vertex -32.5 17.5 51.9
    endloop
  endfacet
  facet normal -1 0 0
    outer loop
      vertex -32.5 -17.5 51.9
      vertex -32.5 -10.5 44.9
      vertex -32.5 -17.5 4.9
    endloop
  endfacet
  facet normal 0 0 -1
    outer loop
      vertex -23.5 13 49.9
      vertex 23.5 15.5 49.9
      vertex 23.5 13 49.9
    endloop
  endfacet
  facet normal -0 0 -1
    outer loop
      vertex 23.5 15.5 49.9
      vertex -23.5 13 49.9
      vertex -23.5 15.5 49.9
    endloop
  endfacet
  facet normal 0 0 -1
    outer loop
      vertex -32.5 -10.5 44.9
      vertex -30.5 10.5 44.9
      vertex -30.5 -10.5 44.9
    endloop
  endfacet
  facet normal -0 0 -1
    outer loop
      vertex -30.5 10.5 44.9
      vertex -32.5 -10.5 44.9
      vertex -32.5 10.5 44.9
    endloop
  endfacet
  facet normal 0 0 -1
    outer loop
      vertex 30.5 -10.5 44.9
      vertex 32.5 10.5 44.9
      vertex 32.5 -10.5 44.9
    endloop
  endfacet
  facet normal -0 0 -1
    outer loop
      vertex 32.5 10.5 44.9
      vertex 30.5 -10.5 44.9
      vertex 30.5 10.5 44.9
    endloop
  endfacet
  facet normal -0 0 1
    outer loop
      vertex -32.5 10.5 11.9
      vertex -30.5 -10.5 11.9
      vertex -30.5 10.5 11.9
    endloop
  endfacet
  facet normal 0 0 1
    outer loop
      vertex -30.5 -10.5 11.9
      vertex -32.5 10.5 11.9
      vertex -32.5 -10.5 11.9
    endloop
  endfacet
  facet normal -0 0 1
    outer loop
      vertex 30.5 -10.0527 11.9
      vertex 32.5 -10.5 11.9
      vertex 32.5 -10.0527 11.9
    endloop
  endfacet
  facet normal 0 0 1
    outer loop
      vertex 32.5 -10.5 11.9
      vertex 30.5 -10.0527 11.9
      vertex 30.5 -10.5 11.9
    endloop
  endfacet
  facet normal -0 0 1
    outer loop
      vertex 30.5 10.5 11.9
      vertex 32.5 -0.947259 11.9
      vertex 32.5 10.5 11.9
    endloop
  endfacet
  facet normal 0 0 1
    outer loop
      vertex 32.5 -0.947259 11.9
      vertex 30.5 10.5 11.9
      vertex 30.5 -0.947259 11.9
    endloop
  endfacet
  facet normal 0 -1 0
    outer loop
      vertex -32.5 10.5 11.9
      vertex -30.5 10.5 44.9
      vertex -32.5 10.5 44.9
    endloop
  endfacet
  facet normal 0 -1 -0
    outer loop
      vertex -30.5 10.5 44.9
      vertex -32.5 10.5 11.9
      vertex -30.5 10.5 11.9
    endloop
  endfacet
  facet normal 0 -1 0
    outer loop
      vertex 30.5 10.5 11.9
      vertex 32.5 10.5 44.9
      vertex 30.5 10.5 44.9
    endloop
  endfacet
  facet normal 0 -1 -0
    outer loop
      vertex 32.5 10.5 44.9
      vertex 30.5 10.5 11.9
      vertex 32.5 10.5 11.9
    endloop
  endfacet
  facet normal 0 1 -0
    outer loop
      vertex -30.5 -10.5 11.9
      vertex -32.5 -10.5 44.9
      vertex -30.5 -10.5 44.9
    endloop
  endfacet
  facet normal 0 1 0
    outer loop
      vertex -32.5 -10.5 44.9
      vertex -30.5 -10.5 11.9
      vertex -32.5 -10.5 11.9
    endloop
  endfacet
  facet normal 0 1 -0
    outer loop
      vertex 32.5 -10.5 11.9
      vertex 30.5 -10.5 44.9
      vertex 32.5 -10.5 44.9
    endloop
  endfacet
  facet normal 0 1 0
    outer loop
      vertex 30.5 -10.5 44.9
      vertex 32.5 -10.5 11.9
      vertex 30.5 -10.5 11.9
    endloop
  endfacet
  facet normal 0 -0.499995 0.866028
    outer loop
      vertex 30.5 -2.56107 9.85491
      vertex 32.5 -3.46632 9.33227
      vertex 32.5 -2.56107 9.85491
    endloop
  endfacet
  facet normal 0 -0.499995 0.866028
    outer loop
      vertex 32.5 -3.46632 9.33227
      vertex 30.5 -2.56107 9.85491
      vertex 30.5 -3.46632 9.33227
    endloop
  endfacet
  facet normal -0 0.104526 0.994522
    outer loop
      vertex 30.5 -5.5 8.9
      vertex 32.5 -6.53956 9.00926
      vertex 32.5 -5.5 8.9
    endloop
  endfacet
  facet normal 0 0.104526 0.994522
    outer loop
      vertex 32.5 -6.53956 9.00926
      vertex 30.5 -5.5 8.9
      vertex 30.5 -6.53956 9.00926
    endloop
  endfacet
  facet normal 0 -0.913548 0.406732
    outer loop
      vertex 30.5 -1.16987 11.4
      vertex 32.5 -0.947259 11.9
      vertex 30.5 -0.947259 11.9
    endloop
  endfacet
  facet normal 0 -0.913548 0.406732
    outer loop
      vertex 32.5 -0.947259 11.9
      vertex 30.5 -1.16987 11.4
      vertex 32.5 -1.16987 11.4
    endloop
  endfacet
  facet normal 0 -0.669112 0.743161
    outer loop
      vertex 30.5 -1.78428 10.5543
      vertex 32.5 -2.56107 9.85491
      vertex 32.5 -1.78428 10.5543
    endloop
  endfacet
  facet normal 0 -0.669112 0.743161
    outer loop
      vertex 32.5 -2.56107 9.85491
      vertex 30.5 -1.78428 10.5543
      vertex 30.5 -2.56107 9.85491
    endloop
  endfacet
  facet normal 0 -0.104526 0.994522
    outer loop
      vertex 30.5 -4.46044 9.00926
      vertex 32.5 -5.5 8.9
      vertex 32.5 -4.46044 9.00926
    endloop
  endfacet
  facet normal 0 -0.104526 0.994522
    outer loop
      vertex 32.5 -5.5 8.9
      vertex 30.5 -4.46044 9.00926
      vertex 30.5 -5.5 8.9
    endloop
  endfacet
  facet normal 0 0.809029 0.587768
    outer loop
      vertex 32.5 -9.21572 10.5543
      vertex 30.5 -9.83013 11.4
      vertex 32.5 -9.83013 11.4
    endloop
  endfacet
  facet normal 0 0.809029 0.587768
    outer loop
      vertex 30.5 -9.83013 11.4
      vertex 32.5 -9.21572 10.5543
      vertex 30.5 -9.21572 10.5543
    endloop
  endfacet
  facet normal 0 -0.809029 0.587768
    outer loop
      vertex 30.5 -1.78428 10.5543
      vertex 32.5 -1.16987 11.4
      vertex 30.5 -1.16987 11.4
    endloop
  endfacet
  facet normal 0 -0.809029 0.587768
    outer loop
      vertex 32.5 -1.16987 11.4
      vertex 30.5 -1.78428 10.5543
      vertex 32.5 -1.78428 10.5543
    endloop
  endfacet
  facet normal -0 0.309018 0.951056
    outer loop
      vertex 30.5 -6.53956 9.00926
      vertex 32.5 -7.53368 9.33227
      vertex 32.5 -6.53956 9.00926
    endloop
  endfacet
  facet normal 0 0.309018 0.951056
    outer loop
      vertex 32.5 -7.53368 9.33227
      vertex 30.5 -6.53956 9.00926
      vertex 30.5 -7.53368 9.33227
    endloop
  endfacet
  facet normal 0 -0.309018 0.951056
    outer loop
      vertex 30.5 -3.46632 9.33227
      vertex 32.5 -4.46044 9.00926
      vertex 32.5 -3.46632 9.33227
    endloop
  endfacet
  facet normal 0 -0.309018 0.951056
    outer loop
      vertex 32.5 -4.46044 9.00926
      vertex 30.5 -3.46632 9.33227
      vertex 30.5 -4.46044 9.00926
    endloop
  endfacet
  facet normal -0 0.499995 0.866028
    outer loop
      vertex 30.5 -7.53368 9.33227
      vertex 32.5 -8.43893 9.85491
      vertex 32.5 -7.53368 9.33227
    endloop
  endfacet
  facet normal 0 0.499995 0.866028
    outer loop
      vertex 32.5 -8.43893 9.85491
      vertex 30.5 -7.53368 9.33227
      vertex 30.5 -8.43893 9.85491
    endloop
  endfacet
  facet normal -0 0.669112 0.743161
    outer loop
      vertex 30.5 -8.43893 9.85491
      vertex 32.5 -9.21572 10.5543
      vertex 32.5 -8.43893 9.85491
    endloop
  endfacet
  facet normal 0 0.669112 0.743161
    outer loop
      vertex 32.5 -9.21572 10.5543
      vertex 30.5 -8.43893 9.85491
      vertex 30.5 -9.21572 10.5543
    endloop
  endfacet
  facet normal 0 0.913576 0.406669
    outer loop
      vertex 32.5 -9.83013 11.4
      vertex 30.5 -10.0527 11.9
      vertex 32.5 -10.0527 11.9
    endloop
  endfacet
  facet normal 0 0.913576 0.406669
    outer loop
      vertex 30.5 -10.0527 11.9
      vertex 32.5 -9.83013 11.4
      vertex 30.5 -9.83013 11.4
    endloop
  endfacet
  facet normal -1 0 0
    outer loop
      vertex 25.5 -17.5 11.9
      vertex 25.5 -15.5 51.9
      vertex 25.5 -15.5 11.9
    endloop
  endfacet
  facet normal -1 -0 0
    outer loop
      vertex 25.5 -15.5 51.9
      vertex 25.5 -17.5 11.9
      vertex 25.5 -17.5 51.9
    endloop
  endfacet
  facet normal -0 0 1
    outer loop
      vertex -25.5 -15.5 11.9
      vertex 25.5 -17.5 11.9
      vertex 25.5 -15.5 11.9
    endloop
  endfacet
  facet normal 0 0 1
    outer loop
      vertex 25.5 -17.5 11.9
      vertex -25.5 -15.5 11.9
      vertex -25.5 -17.5 11.9
    endloop
  endfacet
  facet normal 1 -0 0
    outer loop
      vertex -25.5 -17.5 51.9
      vertex -25.5 -15.5 11.9
      vertex -25.5 -15.5 51.9
    endloop
  endfacet
  facet normal 1 0 0
    outer loop
      vertex -25.5 -15.5 11.9
      vertex -25.5 -17.5 51.9
      vertex -25.5 -17.5 11.9
    endloop
  endfacet
  facet normal 0 -1 0
    outer loop
      vertex -23.5 13 49.9
      vertex 23.5 13 51.9
      vertex -23.5 13 51.9
    endloop
  endfacet
  facet normal 0 -1 -0
    outer loop
      vertex 23.5 13 51.9
      vertex -23.5 13 49.9
      vertex 23.5 13 49.9
    endloop
  endfacet
endsolid OpenSCAD_Model
